<svg xmlns="http://www.w3.org/2000/svg" viewBox="0 0 256 256" role="img" aria-label="Arcade Nexus icon">
  <defs>
    <linearGradient id="g" x1="0" x2="1" y1="0" y2="1">
      <stop offset="0%" stop-color="#22d3ee"/>
      <stop offset="100%" stop-color="#8b5cf6"/>
    </linearGradient>
  </defs>
  <rect x="16" y="16" width="224" height="224" rx="56" fill="#0b1220"/>
  <rect x="34" y="34" width="188" height="188" rx="42" fill="url(#g)" opacity="0.16"/>
  <path d="M72 120c0-26 18-44 42-44 20 0 31 10 38 20l-20 14c-4-7-10-12-19-12-12 0-19 10-19 22s7 22 19 22c10 0 16-5 20-13l21 13c-8 13-21 22-42 22-24 0-40-17-40-44Zm94-29h18l26 72h-22l-4-13h-27l-5 13h-21l35-72Zm12 43-8-22-8 22h16Z" fill="#e5eefc"/>
</svg>
